HIERARCHY
ROOT Hips
{
	OFFSET 0.00000 0.00000 0.00000
	CHANNELS 6 Xposition Yposition Zposition Zrotation Yrotation Xrotation 
	JOINT LHipJoint
	{
		OFFSET 0 0 0
		CHANNELS 3 Zrotation Yrotation Xrotation
		JOINT LeftHip
		{
			OFFSET 1.28366 -1.58472 0.87544
			CHANNELS 3 Zrotation Yrotation Xrotation
			JOINT LeftKnee
			{
				OFFSET 2.18587 -6.00562 0.00000
				CHANNELS 3 Zrotation Yrotation Xrotation
				JOINT LeftAnkle
				{
					OFFSET 2.39085 -6.56880 0.00000
					CHANNELS 3 Zrotation Yrotation Xrotation
					JOINT LeftToe
					{
						OFFSET 0.12003 -0.32979 2.03101
						CHANNELS 3 Zrotation Yrotation Xrotation
						End Site
						{
							OFFSET 0.00000 -0.00000 1.04074
						}
					}
				}
			}
		}
	}
	JOINT RHipJoint
	{
		OFFSET 0 0 0
		CHANNELS 3 Zrotation Yrotation Xrotation
		JOINT RightHip
		{
			OFFSET -1.21795 -1.58472 0.87544
			CHANNELS 3 Zrotation Yrotation Xrotation
			JOINT RightKnee
			{
				OFFSET -2.22714 -6.11902 0.00000
				CHANNELS 3 Zrotation Yrotation Xrotation
				JOINT RightAnkle
				{
					OFFSET -2.40306 -6.60235 0.00000
					CHANNELS 3 Zrotation Yrotation Xrotation
					JOINT RightToe
					{
						OFFSET -0.15519 -0.42640 1.91430
						CHANNELS 3 Zrotation Yrotation Xrotation
						End Site
						{
							OFFSET -0.00000 -0.00000 0.99082
						}
					}
				}
			}
		}
	}
	JOINT lowerback
	{
		OFFSET 0 0 0
		CHANNELS 3 Zrotation Yrotation Xrotation
		JOINT Chest
		{
			OFFSET 0.01180 1.76430 -0.06387
			CHANNELS 3 Zrotation Yrotation Xrotation
			JOINT Chest2
			{
				OFFSET -0.00388 1.74651 0.09536
				CHANNELS 3 Zrotation Yrotation Xrotation
				JOINT lowerneck
				{
					OFFSET 0 0 0
					CHANNELS 3 Zrotation Yrotation Xrotation
					JOINT Neck
					{
						OFFSET 0.04111 1.46174 0.14397
						CHANNELS 3 Zrotation Yrotation Xrotation
						JOINT Head
						{
							OFFSET 0.00502 1.44580 -0.31711
							CHANNELS 3 Zrotation Yrotation Xrotation
							End Site
							{
								OFFSET -0.00395 1.49251 -0.12327
							}
						}
					}
				}
				JOINT LeftCollar
				{
					OFFSET 0 0 0
					CHANNELS 3 Zrotation Yrotation Xrotation
					JOINT LeftShoulder
					{
						OFFSET 2.70917 1.34870 -0.15417
CHANNELS 3 Zrotation Xrotation Yrotation
						JOINT LeftElbow
						{
OFFSET 0 -4.466100 -0.000000
CHANNELS 3 Zrotation Xrotation Yrotation
							JOINT LeftWrist
							{
OFFSET 0 -3.414140 0.000000
CHANNELS 3 Zrotation Xrotation Yrotation
								JOINT lhand
								{
									OFFSET 0 0 0
CHANNELS 3 Zrotation Xrotation Yrotation
									JOINT LFingers
									{
OFFSET 0 -0.328300 0.000000
CHANNELS 3 Zrotation Xrotation Yrotation
										End Site
										{
OFFSET 0 -0.264680 0.000000
										}
									}
								}
								JOINT LThumb
								{
OFFSET 0 0.000000 0.000000
CHANNELS 3 Zrotation Xrotation Yrotation
									End Site
									{
OFFSET 0 -0.268720 0.268720
									}
								}
							}
						}
					}
				}
				JOINT RightCollar
				{
					OFFSET 0 0 0
					CHANNELS 3 Zrotation Yrotation Xrotation
					JOINT RightShoulder
					{
						OFFSET -3.06316 1.13725 -0.10883
CHANNELS 3 Zrotation Xrotation Yrotation
						JOINT RightElbow
						{
OFFSET 0 -4.404310 0.000000
CHANNELS 3 Zrotation Xrotation Yrotation
							JOINT RightWrist
							{
OFFSET 0 -3.046880 0.000000
CHANNELS 3 Zrotation Xrotation Yrotation
								JOINT rhand
								{
									OFFSET 0 0 0
CHANNELS 3 Zrotation Xrotation Yrotation
									JOINT RFingers
									{
OFFSET 0 -0.500490 0.000000
CHANNELS 3 Zrotation Xrotation Yrotation
										End Site
										{
OFFSET 0 -0.403510 0.000000
										}
									}
								}
								JOINT RThumb
								{
OFFSET 0 0.000000 0.000000
CHANNELS 3 Zrotation Xrotation Yrotation
									End Site
									{
OFFSET 0 -0.409670 0.409670
									}
								}
							}
						}
					}
				}
			}
		}
	}
}
MOTION
Frames: 4
Frame Time: 0.008333333333333333
7.140942 15.101134 0.704026 -172.941982 -17.623740 -174.155591 0.000000 0.000000 0.000000 -10.093661 14.192933 -52.152297 4.648586 12.971981 39.271853 1.802586 15.580578 -34.978240 0.001373 0.240493 0.660828 0.000000 0.000000 0.000000 29.211934 -15.609294 -32.894811 -5.695661 -14.126708 43.747619 -1.632368 -2.246032 -25.037175 -0.000245 0.088442 -0.243029 -0.181684 0.256898 4.932028 10.965113 -0.062094 -5.129049 12.259148 -0.091317 -8.307372 0.159621 -4.099028 -18.036006 -8.426658 -4.762061 26.817002 -3.958853 -3.694996 11.517332 0.000000 0.000000 0.000000 36.876167 3.475093 -86.634448 105.505580 -59.071789 73.386363 -25.436400 -86.251559 -12.542586 0.000000 0.000000 0.000000 -7.125000 0.000000 0.000000 -42.919741 38.438910 -9.060513 0.000000 0.000000 0.000000 -19.239326 -13.490240 33.899449 -28.290678 -39.380145 -10.308494 -52.645830 -66.942171 -13.044338 0.000000 0.000000 0.000000 7.125000 0.000000 0.000000 -16.491617 9.736764 -14.075374
6.978542 15.254957 0.661257 -173.018357 -18.351083 -174.221402 0.000000 0.000000 0.000000 -10.328803 11.449949 -46.342991 3.052368 10.779087 31.538719 1.728126 17.369886 -36.132588 0.032413 1.162211 3.195179 0.000000 0.000000 0.000000 27.216526 -12.954700 -31.304386 -5.895404 -14.325882 44.560032 -1.293854 -0.512128 -21.701426 -0.040201 1.291351 -3.550852 -0.336791 0.444669 5.191485 11.285963 0.171101 -5.132023 12.736083 0.040788 -8.529677 0.894726 -3.922331 -18.407214 -8.294568 -4.777347 27.555516 -4.096812 -3.626949 11.852592 0.000000 0.000000 0.000000 37.052859 4.124694 -87.271444 106.344580 -58.966077 74.105709 -25.212843 -86.261082 -12.528053 0.000000 0.000000 0.000000 -7.125000 0.000000 0.000000 -42.773802 38.458585 -8.980930 0.000000 0.000000 0.000000 -21.015342 -10.753332 45.938668 -35.406975 -45.095543 -15.102585 -51.473292 -74.833086 -7.041642 0.000000 0.000000 0.000000 7.125000 0.000000 0.000000 -17.339971 19.008156 -11.270499
6.966044 15.282089 0.680090 -174.516172 -20.007689 -173.312165 0.000000 0.000000 0.000000 -13.007462 11.313129 -46.594672 2.747016 10.273816 29.867974 1.508227 18.417962 -35.924329 0.002236 0.300509 0.825764 0.000000 0.000000 0.000000 24.238223 -10.455963 -32.488316 -6.659647 -15.038397 47.574936 -1.179751 6.551395 -19.403462 -0.048169 1.416001 -3.894171 -2.260444 0.539572 5.771128 10.439288 0.337219 -4.987141 12.887297 0.327630 -8.763718 0.774018 -4.282219 -19.017747 -6.558839 -5.588713 27.276494 -3.540883 -3.703308 11.880158 0.000000 0.000000 0.000000 39.144725 3.978725 -86.831597 108.430089 -58.676798 75.890044 -25.472101 -86.533827 -12.065841 0.000000 0.000000 0.000000 -7.125000 0.000000 0.000000 -42.689449 38.039522 -9.553692 0.000000 0.000000 0.000000 -22.594264 -9.175822 56.167919 -45.794784 -51.149628 -22.856703 -50.616104 -82.370414 -3.092356 0.000000 0.000000 0.000000 7.125000 0.000000 0.000000 -17.820731 25.060562 -9.016609
7.074506 15.227454 0.666656 -173.378366 -24.496200 -172.598112 0.000000 0.000000 0.000000 -14.791513 12.782497 -51.602681 3.119687 10.885848 31.896360 1.312836 18.600252 -35.033771 0.078492 -1.801365 -4.957205 0.000000 0.000000 0.000000 27.118268 -11.622229 -32.183418 -5.666373 -14.096573 43.626619 -1.481321 4.477414 -21.988871 -0.008916 -0.595168 1.635415 -2.021428 0.092232 5.592865 9.958900 -0.171312 -5.531228 12.253448 0.103994 -9.122159 0.422966 -4.694949 -19.400763 -5.171563 -6.397936 27.453350 -3.105690 -3.879624 12.056907 0.000000 0.000000 0.000000 41.513821 3.017393 -86.283267 108.853283 -58.613360 76.251428 -25.673175 -86.510611 -11.677461 0.000000 0.000000 0.000000 -7.125000 0.000000 0.000000 -42.608854 37.688144 -10.029323 0.000000 0.000000 0.000000 -23.672820 -7.807512 64.840641 -60.454158 -56.421397 -34.721038 -49.065994 -86.846336 -0.889357 0.000000 0.000000 0.000000 7.125000 0.000000 0.000000 -17.283104 28.426437 -7.279778
